<?xml version="1.0" encoding="UTF-8"?>
<!DOCTYPE svg PUBLIC "-//W3C//DTD SVG 1.1//EN" "http://www.w3.org/Graphics/SVG/1.1/DTD/svg11.dtd">
<!-- Creator: CorelDRAW -->
<svg xmlns="http://www.w3.org/2000/svg" xml:space="preserve" width="3.7326mm" height="3.7259mm" version="1.1" style="shape-rendering:geometricPrecision; text-rendering:geometricPrecision; image-rendering:optimizeQuality; fill-rule:evenodd; clip-rule:evenodd"
viewBox="0 0 20.94 20.9"
 xmlns:xlink="http://www.w3.org/1999/xlink"
 xmlns:xodm="http://www.corel.com/coreldraw/odm/2003">
 <defs>
  <style type="text/css">
   <![CDATA[
    .fil0 {fill:#E7EB00}
   ]]>
  </style>
 </defs>
 <g id="Layer_x0020_1">
  <metadata id="CorelCorpID_0Corel-Layer"/>
  <path class="fil0" d="M9.15 11.62c0.48,-0.17 4.24,-4.46 4.87,-4.67 0.77,-0.26 1.44,0.28 1.35,1.02 -0.07,0.54 -0.73,1.07 -1.01,1.36 -0.8,0.8 -1.56,1.56 -2.36,2.36 -2.45,2.45 -2.57,3.1 -4.05,1.62 -0.43,-0.43 -2.14,-2.03 -2.31,-2.47 -0.26,-0.66 0.17,-1.31 0.89,-1.32 0.93,-0.01 1.96,1.7 2.62,2.11zm11.75 -0.57c0.3,-3.22 -1.25,-6.04 -2.72,-7.66 -1.88,-2.07 -4.18,-3.05 -7.05,-3.35 -3.91,-0.42 -8.27,2.08 -9.96,5.65 -1.37,2.9 -1.56,5.55 -0.43,8.6 0.83,2.24 2.84,4.45 4.99,5.48 3.98,1.92 8.62,1.36 11.83,-1.63 1.77,-1.65 3.03,-3.7 3.35,-7.09z"/>
 </g>
</svg>
